<svg xmlns="http://www.w3.org/2000/svg" version="1.1" xmlns:xlink="http://www.w3.org/1999/xlink" xmlns:svgjs="http://svgjs.dev/svgjs" width="1500" height="1500" viewBox="0 0 1500 1500"><rect width="1500" height="1500" fill="#293040"></rect><g transform="matrix(0.6666666666666666,0,0,0.6666666666666666,249.39393939393938,601.2786051473936)"><svg viewBox="0 0 396 118" data-background-color="#293040" preserveAspectRatio="xMidYMid meet" height="446" width="1500" xmlns="http://www.w3.org/2000/svg" xmlns:xlink="http://www.w3.org/1999/xlink"><g id="tight-bounds" transform="matrix(1,0,0,1,0.2400000000000091,0.021719481863982537)"><svg viewBox="0 0 395.52 117.95656103627206" height="117.95656103627206" width="395.52"><g><svg viewBox="0 0 614.2215087494279 183.1802611412647" height="117.95656103627206" width="395.52"><g transform="matrix(1,0,0,1,0,53.97380404002011)"><svg viewBox="0 0 395.52 75.23265306122448" height="75.23265306122448" width="395.52"><g id="textblocktransform"><svg viewBox="0 0 395.52 75.23265306122448" height="75.23265306122448" width="395.52" id="textblock"><g><svg viewBox="0 0 395.52 75.23265306122448" height="75.23265306122448" width="395.52"><g transform="matrix(1,0,0,1,0,0)"><svg width="395.52" viewBox="2.65 -39 254.42999999999998 48" height="75.23265306122448" data-palette-color="#d5b263"><g class="wordmark-text-0" data-fill-palette-color="primary" id="text-0"><path d="M18.75-2.75L18.75-2.75Q23-2.75 25.13-4.88 27.25-7 27.25-11.15L27.25-11.15 27.25-14.65 23.05-15.7 23.05-17.95 36.45-17.95 36.45-15.7 32.25-14.65 32.25 0 29.65 0 28.4-3.95Q26.25-1.55 23.93-0.53 21.6 0.5 18.45 0.5L18.45 0.5Q11.6 0.5 7.5-3.7L7.5-3.7Q5.2-6.05 3.93-9.65 2.65-13.25 2.65-17.6L2.65-17.6Q2.65-22.05 3.98-25.88 5.3-29.7 7.7-32.2L7.7-32.2Q9.75-34.35 12.48-35.43 15.2-36.5 18.65-36.5L18.65-36.5Q21.65-36.5 23.8-35.58 25.95-34.65 27.8-32.55L27.8-32.55 28.9-36 31.65-36 31.65-24.95 28.6-24.95Q27.9-29.35 25.33-31.58 22.75-33.8 18.45-33.8L18.45-33.8Q15.95-33.8 14.23-32.98 12.5-32.15 11.25-30.4L11.25-30.4Q9.85-28.3 9.03-25.1 8.2-21.9 8.2-18.3L8.2-18.3Q8.2-14.6 9.08-11.45 9.95-8.3 11.55-6.1L11.55-6.1Q12.85-4.35 14.55-3.55 16.25-2.75 18.75-2.75ZM62.5-13.2L62.5-13.2 45.05-13.2Q45.05-9.55 46.05-7.15L46.05-7.15Q47.05-4.85 48.9-3.85 50.75-2.85 52.9-2.85L52.9-2.85Q55.25-2.85 57.2-3.83 59.15-4.8 60.7-6.5L60.7-6.5 62.3-5.3Q60.55-2.9 58.05-1.2 55.55 0.5 51.6 0.5L51.6 0.5Q48.15 0.5 45.5-0.98 42.85-2.45 41.45-5.3L41.45-5.3Q40.7-6.85 40.35-8.75 40-10.65 40-12.8L40-12.8Q40-19.8 43.22-23.65 46.45-27.5 52-27.5L52-27.5Q57.1-27.5 59.87-24.33 62.65-21.15 62.65-15.55L62.65-15.55Q62.65-15.05 62.62-14.63 62.6-14.2 62.5-13.2ZM51.7-24.8L51.7-24.8Q45.7-24.8 45.1-15.65L45.1-15.65 57.6-15.65 57.6-17.3Q57.6-20.9 56.07-22.85 54.55-24.8 51.7-24.8ZM91.64-13.75L91.64-13.75Q91.64-10.5 90.67-7.58 89.69-4.65 87.94-2.75L87.94-2.75Q86.44-1.1 84.25-0.3 82.05 0.5 79.25 0.5L79.25 0.5Q76.5 0.5 74.34-0.28 72.19-1.05 70.69-2.65L70.69-2.65Q69-4.5 68.07-7.23 67.14-9.95 67.14-13.15L67.14-13.15Q67.14-16.4 68.09-19.38 69.05-22.35 70.84-24.25L70.84-24.25Q72.44-25.95 74.57-26.73 76.69-27.5 79.44-27.5L79.44-27.5Q82.19-27.5 84.39-26.73 86.59-25.95 88.09-24.35L88.09-24.35Q89.84-22.5 90.75-19.73 91.64-16.95 91.64-13.75ZM72.5-13.7L72.5-13.7Q72.5-10.65 72.97-8.43 73.44-6.2 74.3-4.75L74.3-4.75Q75.14-3.5 76.32-2.8 77.5-2.1 79.39-2.1L79.39-2.1Q82.84-2.1 84.55-4.45L84.55-4.45Q85.44-5.75 85.87-8.05 86.3-10.35 86.3-13.35L86.3-13.35Q86.3-16.35 85.82-18.6 85.34-20.85 84.5-22.25L84.5-22.25Q83.69-23.55 82.47-24.23 81.25-24.9 79.34-24.9L79.34-24.9Q75.84-24.9 74.3-22.6L74.3-22.6Q72.5-19.8 72.5-13.7ZM131.69-33.85L127.49-32.8 127.49-3.2 131.69-2.15 131.69 0 118.29 0 118.29-2.15 122.49-3.2 122.49-17.05 105.54-17.05 105.54-3.2 109.74-2.15 109.74 0 96.34 0 96.34-2.15 100.54-3.2 100.54-32.8 96.34-33.85 96.34-36 109.74-36 109.74-33.85 105.54-32.8 105.54-19.95 122.49-19.95 122.49-32.8 118.29-33.85 118.29-36 131.69-36 131.69-33.85ZM158.94-13.2L158.94-13.2 141.49-13.2Q141.49-9.55 142.49-7.15L142.49-7.15Q143.49-4.85 145.34-3.85 147.19-2.85 149.34-2.85L149.34-2.85Q151.69-2.85 153.64-3.83 155.59-4.8 157.14-6.5L157.14-6.5 158.74-5.3Q156.99-2.9 154.49-1.2 151.99 0.5 148.04 0.5L148.04 0.5Q144.59 0.5 141.94-0.98 139.29-2.45 137.89-5.3L137.89-5.3Q137.14-6.85 136.79-8.75 136.44-10.65 136.44-12.8L136.44-12.8Q136.44-19.8 139.66-23.65 142.89-27.5 148.44-27.5L148.44-27.5Q153.54-27.5 156.31-24.33 159.09-21.15 159.09-15.55L159.09-15.55Q159.09-15.05 159.06-14.63 159.04-14.2 158.94-13.2ZM148.14-24.8L148.14-24.8Q142.14-24.8 141.54-15.65L141.54-15.65 154.04-15.65 154.04-17.3Q154.04-20.9 152.52-22.85 150.99-24.8 148.14-24.8ZM162.69-2.05L166.54-3 166.54-36 162.69-36.95 162.69-39 171.39-39 171.39-3 175.24-2.05 175.24 0 162.69 0 162.69-2.05ZM186.64-3.7L186.64 6 191.49 6.95 191.49 9 177.94 9 177.94 6.95 181.79 6 181.79-24 177.94-24.95 177.94-27 185.14-27 185.89-23.15Q187.49-25.65 189.51-26.58 191.54-27.5 194.09-27.5L194.09-27.5Q196.64-27.5 198.71-26.75 200.79-26 202.09-24.35L202.09-24.35Q203.59-22.45 204.46-19.78 205.34-17.1 205.34-14L205.34-14Q205.34-10.8 204.36-7.98 203.39-5.15 201.74-3.25L201.74-3.25Q198.94 0 193.69 0L193.69 0Q191.54 0 189.81-0.83 188.09-1.65 186.64-3.7L186.64-3.7ZM186.59-13.95L186.59-13.95Q186.59-11 187.04-8.8 187.49-6.6 188.34-5.25L188.34-5.25Q189.14-4 190.31-3.3 191.49-2.6 193.34-2.6L193.34-2.6Q195.04-2.6 196.31-3.23 197.59-3.85 198.39-4.95L198.39-4.95Q199.29-6.2 199.69-8.45 200.09-10.7 200.09-13.6L200.09-13.6Q200.09-16.55 199.64-18.7 199.19-20.85 198.34-22.25L198.34-22.25Q197.54-23.55 196.36-24.23 195.19-24.9 193.29-24.9L193.29-24.9Q191.59-24.9 190.31-24.33 189.04-23.75 188.34-22.6L188.34-22.6Q187.54-21.25 187.06-19.07 186.59-16.9 186.59-13.95ZM232.48-13.2L232.48-13.2 215.03-13.2Q215.03-9.55 216.03-7.15L216.03-7.15Q217.03-4.85 218.88-3.85 220.73-2.85 222.88-2.85L222.88-2.85Q225.23-2.85 227.18-3.83 229.13-4.8 230.68-6.5L230.68-6.5 232.28-5.3Q230.53-2.9 228.03-1.2 225.53 0.5 221.58 0.5L221.58 0.5Q218.13 0.5 215.48-0.98 212.83-2.45 211.43-5.3L211.43-5.3Q210.68-6.85 210.33-8.75 209.98-10.65 209.98-12.8L209.98-12.8Q209.98-19.8 213.21-23.65 216.43-27.5 221.98-27.5L221.98-27.5Q227.08-27.5 229.86-24.33 232.63-21.15 232.63-15.55L232.63-15.55Q232.63-15.05 232.61-14.63 232.58-14.2 232.48-13.2ZM221.68-24.8L221.68-24.8Q215.68-24.8 215.08-15.65L215.08-15.65 227.58-15.65 227.58-17.3Q227.58-20.9 226.06-22.85 224.53-24.8 221.68-24.8ZM251.68-24.1L251.68-24.1Q251.48-24.25 251.21-24.33 250.93-24.4 250.68-24.4L250.68-24.4Q250.08-24.4 249.38-23.85 248.68-23.3 248.03-22.38 247.38-21.45 246.83-20.25L246.83-20.25Q246.13-18.55 245.73-16.53 245.33-14.5 245.33-12.35L245.33-12.35 245.33-3 250.73-2.05 250.73 0 236.63 0 236.63-2.05 240.48-3 240.48-24 236.63-24.95 236.63-27 243.83-27 244.93-20.4 245.13-20.4Q246.28-23.8 248.23-25.65 250.18-27.5 252.53-27.5L252.53-27.5Q254.48-27.5 255.78-26.28 257.08-25.05 257.08-23L257.08-23Q257.08-21.5 256.31-20.63 255.53-19.75 254.23-19.75L254.23-19.75Q252.93-19.75 252.18-20.58 251.43-21.4 251.43-22.75L251.43-22.75Q251.43-23.05 251.48-23.33 251.53-23.6 251.68-24.1Z" fill="#d5b263" data-fill-palette-color="primary"></path></g></svg></g></svg></g></svg></g></svg></g><g transform="matrix(1,0,0,1,431.04124760816325,0)"><svg viewBox="0 0 183.1802611412647 183.1802611412647" height="183.1802611412647" width="183.1802611412647"><g><svg></svg></g><g id="icon-0"><svg viewBox="0 0 183.1802611412647 183.1802611412647" height="183.1802611412647" width="183.1802611412647"><g><path d="M0 91.59c0-50.584 41.006-91.59 91.59-91.59 50.584 0 91.59 41.006 91.59 91.59 0 50.584-41.006 91.59-91.59 91.59-50.584 0-91.59-41.006-91.59-91.59zM91.59 176.396c46.837 0 84.806-37.969 84.806-84.806 0-46.837-37.969-84.806-84.806-84.805-46.837 0-84.806 37.969-84.805 84.805 0 46.837 37.969 84.806 84.805 84.806z" data-fill-palette-color="accent" fill="#c9ad8b" stroke="transparent"></path></g><g transform="matrix(1,0,0,1,38.587090587068886,45.70356278772411)"><svg viewBox="0 0 106.00607996712694 91.77313556581649" height="91.77313556581649" width="106.00607996712694"><g><svg xmlns="http://www.w3.org/2000/svg" xmlns:xlink="http://www.w3.org/1999/xlink" version="1.1" x="0" y="0" viewBox="5.965000000000005 9.624750182368103 88.07 76.2452498176319" enable-background="new 0 0 100 100" xml:space="preserve" height="91.77313556581649" width="106.00607996712694" class="icon-cg-0" data-fill-palette-color="accent" id="cg-0"><g fill="#c9ad8b" data-fill-palette-color="accent"><path d="M56.514 71.866c-0.553 0-1.001-0.448-1.001-1.001V14.513c0-0.553 0.448-1 1.001-1 0.551 0 0.999 0.447 0.999 1v56.353C57.513 71.418 57.064 71.866 56.514 71.866z" fill="#c9ad8b" data-fill-palette-color="accent"></path></g><g fill="#c9ad8b" data-fill-palette-color="accent"><g fill="#c9ad8b" data-fill-palette-color="accent"><path d="M18.875 43.261c-0.054 0-0.108-0.007-0.163-0.021-0.357-0.09-0.575-0.451-0.485-0.809 0.056-0.223 0.117-0.447 0.184-0.672 0.104-0.353 0.474-0.555 0.829-0.449 0.354 0.105 0.554 0.477 0.45 0.829-0.061 0.205-0.117 0.411-0.168 0.615C19.446 43.058 19.174 43.261 18.875 43.261z" fill="#c9ad8b" data-fill-palette-color="accent"></path></g><g fill="#c9ad8b" data-fill-palette-color="accent"><path d="M18.475 50.814c-0.352 0-0.645-0.274-0.666-0.628-0.024-0.423-0.047-0.848-0.065-1.273-0.016-0.367 0.27-0.68 0.638-0.694 0.37-0.016 0.679 0.27 0.695 0.637 0.019 0.42 0.041 0.838 0.065 1.256 0.021 0.367-0.261 0.681-0.628 0.703C18.5 50.814 18.487 50.814 18.475 50.814zM18.383 47.021c-0.007 0-0.014 0-0.021 0-0.369-0.013-0.657-0.32-0.646-0.688 0.014-0.433 0.039-0.866 0.079-1.303 0.034-0.366 0.354-0.634 0.725-0.604 0.367 0.034 0.637 0.358 0.604 0.725-0.038 0.41-0.061 0.818-0.074 1.224C19.038 46.735 18.742 47.021 18.383 47.021z" fill="#c9ad8b" data-fill-palette-color="accent"></path></g><g fill="#c9ad8b" data-fill-palette-color="accent"><path d="M30.726 69.043c-0.358 0-0.654-0.283-0.667-0.645-0.012-0.368 0.276-0.677 0.645-0.688 0.41-0.015 0.811-0.047 1.192-0.101 0.359-0.055 0.701 0.204 0.751 0.569 0.05 0.365-0.205 0.702-0.569 0.751-0.426 0.06-0.874 0.098-1.33 0.112C30.742 69.043 30.734 69.043 30.726 69.043zM28.204 68.902c-0.031 0-0.062-0.002-0.094-0.007-0.437-0.062-0.875-0.143-1.301-0.24-0.359-0.082-0.583-0.44-0.5-0.799 0.083-0.359 0.441-0.584 0.799-0.5 0.39 0.089 0.789 0.163 1.188 0.219 0.364 0.051 0.619 0.389 0.567 0.753C28.816 68.661 28.53 68.902 28.204 68.902zM34.42 68.269c-0.252 0-0.494-0.143-0.606-0.387-0.154-0.335-0.009-0.73 0.327-0.885 0.337-0.156 0.663-0.349 0.967-0.574 0.295-0.221 0.713-0.157 0.932 0.139s0.157 0.713-0.139 0.934c-0.377 0.279-0.782 0.52-1.202 0.713C34.609 68.25 34.513 68.269 34.42 68.269zM24.561 67.873c-0.095 0-0.19-0.02-0.281-0.062-0.419-0.194-0.821-0.428-1.196-0.69-0.302-0.211-0.375-0.627-0.163-0.929 0.211-0.302 0.627-0.375 0.929-0.163 0.311 0.219 0.645 0.411 0.993 0.573 0.333 0.154 0.479 0.551 0.323 0.885C25.052 67.73 24.812 67.873 24.561 67.873zM37.221 65.783c-0.129 0-0.259-0.037-0.374-0.114-0.305-0.206-0.385-0.621-0.178-0.927 0.21-0.311 0.41-0.646 0.612-1.025 0.171-0.325 0.576-0.449 0.901-0.276 0.326 0.173 0.449 0.576 0.277 0.901-0.223 0.422-0.448 0.798-0.685 1.148C37.646 65.681 37.436 65.783 37.221 65.783zM21.68 65.468c-0.206 0-0.409-0.094-0.54-0.273-0.257-0.354-0.5-0.738-0.721-1.143-0.177-0.324-0.058-0.729 0.266-0.905s0.729-0.058 0.905 0.265c0.194 0.355 0.406 0.69 0.629 0.997 0.217 0.298 0.151 0.715-0.146 0.933C21.953 65.427 21.816 65.468 21.68 65.468zM38.9 62.386c-0.08 0-0.162-0.015-0.241-0.046-0.344-0.133-0.514-0.521-0.381-0.863 0.153-0.391 0.298-0.784 0.441-1.174 0.126-0.346 0.512-0.522 0.855-0.396 0.346 0.126 0.523 0.51 0.397 0.855-0.146 0.398-0.294 0.799-0.45 1.197C39.419 62.224 39.167 62.386 38.9 62.386zM20.022 62.069c-0.282 0-0.543-0.18-0.634-0.462-0.133-0.411-0.252-0.831-0.36-1.259-0.09-0.355 0.125-0.719 0.482-0.81 0.355-0.09 0.72 0.126 0.81 0.483 0.102 0.398 0.213 0.791 0.337 1.175 0.113 0.351-0.079 0.727-0.43 0.84C20.159 62.06 20.09 62.069 20.022 62.069zM40.213 58.821c-0.074 0-0.15-0.012-0.224-0.038-0.347-0.123-0.528-0.505-0.405-0.853l0.422-1.191c0.123-0.347 0.506-0.528 0.851-0.405 0.348 0.122 0.529 0.504 0.406 0.851l-0.422 1.193C40.745 58.651 40.486 58.821 40.213 58.821zM19.169 58.374c-0.322 0-0.604-0.233-0.658-0.562-0.068-0.422-0.129-0.847-0.185-1.273-0.047-0.365 0.21-0.699 0.576-0.747 0.36-0.041 0.699 0.21 0.747 0.576 0.054 0.413 0.113 0.823 0.179 1.232 0.059 0.363-0.188 0.706-0.552 0.765C19.24 58.371 19.205 58.374 19.169 58.374zM41.506 55.253c-0.08 0-0.162-0.015-0.241-0.045-0.344-0.134-0.514-0.52-0.381-0.863 0.155-0.399 0.315-0.797 0.482-1.192 0.144-0.339 0.535-0.496 0.875-0.354 0.339 0.144 0.498 0.535 0.354 0.875-0.162 0.382-0.316 0.767-0.467 1.153C42.026 55.091 41.773 55.253 41.506 55.253zM18.724 54.603c-0.343 0-0.635-0.263-0.664-0.611-0.036-0.424-0.067-0.848-0.096-1.272-0.026-0.366 0.252-0.686 0.619-0.71 0.369-0.012 0.686 0.251 0.711 0.619 0.028 0.418 0.06 0.836 0.095 1.252 0.031 0.367-0.242 0.689-0.609 0.72C18.761 54.603 18.742 54.603 18.724 54.603zM43.062 51.792c-0.106 0-0.213-0.025-0.313-0.078-0.325-0.174-0.448-0.578-0.274-0.903 0.204-0.38 0.418-0.758 0.646-1.131 0.191-0.313 0.602-0.416 0.917-0.222 0.314 0.19 0.414 0.602 0.222 0.915-0.214 0.352-0.416 0.706-0.607 1.066C43.532 51.664 43.301 51.792 43.062 51.792zM45.198 48.667c-0.164 0-0.329-0.061-0.458-0.182-0.268-0.253-0.281-0.674-0.029-0.942 0.304-0.323 0.63-0.634 0.969-0.923 0.279-0.24 0.701-0.207 0.939 0.073 0.239 0.28 0.207 0.701-0.073 0.94-0.302 0.259-0.592 0.535-0.864 0.823C45.552 48.597 45.375 48.667 45.198 48.667zM48.215 46.393c-0.246 0-0.483-0.137-0.599-0.373-0.163-0.33-0.026-0.73 0.304-0.893 0.43-0.211 0.861-0.381 1.284-0.504 0.355-0.104 0.724 0.099 0.827 0.452 0.104 0.354-0.1 0.725-0.453 0.828-0.349 0.103-0.708 0.242-1.069 0.42C48.415 46.37 48.314 46.393 48.215 46.393z" fill="#c9ad8b" data-fill-palette-color="accent"></path></g><g fill="#c9ad8b" data-fill-palette-color="accent"><path d="M52.531 46.108c-0.102 0-0.206-0.023-0.303-0.073-0.16-0.082-0.329-0.148-0.502-0.198-0.354-0.103-0.558-0.473-0.455-0.827 0.103-0.354 0.472-0.557 0.826-0.454 0.255 0.073 0.502 0.172 0.737 0.293 0.329 0.167 0.458 0.569 0.291 0.896C53.008 45.977 52.774 46.108 52.531 46.108z" fill="#c9ad8b" data-fill-palette-color="accent"></path></g></g><g fill="#c9ad8b" data-fill-palette-color="accent"><g fill="#c9ad8b" data-fill-palette-color="accent"><path d="M60.064 49.858c-0.192 0-0.385-0.084-0.517-0.246-0.148-0.182-0.291-0.368-0.429-0.561-0.216-0.299-0.148-0.716 0.15-0.931s0.717-0.147 0.932 0.15c0.122 0.171 0.25 0.337 0.381 0.499 0.233 0.286 0.188 0.706-0.097 0.939C60.361 49.809 60.213 49.858 60.064 49.858z" fill="#c9ad8b" data-fill-palette-color="accent"></path></g><g fill="#c9ad8b" data-fill-palette-color="accent"><path d="M66.333 56.219c-0.213 0-0.421-0.1-0.55-0.287-0.253-0.366-0.538-0.726-0.875-1.101-0.247-0.273-0.223-0.695 0.05-0.941 0.274-0.247 0.696-0.223 0.942 0.051 0.375 0.417 0.695 0.821 0.98 1.232 0.208 0.304 0.133 0.719-0.171 0.929C66.595 56.181 66.463 56.219 66.333 56.219zM63.258 52.985c-0.157 0-0.315-0.056-0.441-0.167l-0.228-0.2c-0.298-0.266-0.598-0.529-0.893-0.797-0.272-0.248-0.294-0.669-0.046-0.943 0.245-0.272 0.668-0.294 0.941-0.046 0.292 0.264 0.587 0.525 0.881 0.785l0.228 0.201c0.275 0.245 0.301 0.665 0.057 0.942C63.626 52.909 63.441 52.985 63.258 52.985z" fill="#c9ad8b" data-fill-palette-color="accent"></path></g><g fill="#c9ad8b" data-fill-palette-color="accent"><path d="M75.17 68.259c-0.345 0-0.636-0.267-0.664-0.615-0.028-0.367 0.245-0.688 0.613-0.717 0.43-0.033 0.869-0.121 1.308-0.261 0.349-0.113 0.726 0.081 0.837 0.433 0.112 0.351-0.081 0.726-0.432 0.837-0.535 0.172-1.077 0.279-1.609 0.321C75.204 68.258 75.187 68.259 75.17 68.259zM72.271 67.73c-0.096 0-0.192-0.021-0.284-0.062-0.481-0.228-0.95-0.519-1.392-0.867-0.289-0.228-0.339-0.647-0.11-0.937 0.228-0.289 0.646-0.338 0.936-0.11 0.362 0.285 0.744 0.522 1.135 0.707 0.332 0.156 0.477 0.554 0.319 0.887C72.761 67.589 72.521 67.73 72.271 67.73zM79.226 66.534c-0.194 0-0.386-0.084-0.518-0.246-0.232-0.286-0.19-0.706 0.096-0.938 0.354-0.288 0.691-0.609 0.999-0.956 0.248-0.275 0.669-0.297 0.942-0.053 0.275 0.245 0.298 0.667 0.053 0.941-0.355 0.398-0.743 0.77-1.151 1.102C79.522 66.485 79.374 66.534 79.226 66.534zM69.123 64.666c-0.244 0-0.479-0.134-0.596-0.366-0.226-0.445-0.418-0.932-0.591-1.485-0.11-0.352 0.087-0.726 0.438-0.836 0.351-0.106 0.726 0.087 0.835 0.438 0.15 0.483 0.316 0.902 0.508 1.282 0.166 0.329 0.034 0.73-0.295 0.896C69.327 64.644 69.225 64.666 69.123 64.666zM81.911 63.01c-0.09 0-0.181-0.019-0.268-0.057-0.338-0.148-0.49-0.543-0.342-0.88 0.188-0.428 0.338-0.865 0.444-1.299 0.088-0.358 0.448-0.577 0.807-0.489s0.576 0.448 0.489 0.808c-0.125 0.509-0.299 1.02-0.52 1.519C82.412 62.861 82.168 63.01 81.911 63.01zM67.892 60.381c-0.309 0-0.585-0.215-0.652-0.528-0.089-0.42-0.198-0.916-0.337-1.409-0.1-0.355 0.107-0.723 0.463-0.822 0.354-0.1 0.723 0.108 0.821 0.463 0.148 0.529 0.264 1.051 0.357 1.491 0.077 0.36-0.153 0.715-0.513 0.791C67.984 60.376 67.938 60.381 67.892 60.381zM82.532 58.641c-0.321 0-0.604-0.232-0.657-0.561-0.072-0.441-0.192-0.876-0.36-1.289-0.137-0.343 0.028-0.73 0.37-0.869 0.342-0.136 0.729 0.027 0.868 0.369 0.204 0.507 0.352 1.036 0.438 1.576 0.059 0.364-0.188 0.705-0.551 0.765C82.604 58.638 82.567 58.641 82.532 58.641zM80.58 54.674c-0.201 0-0.399-0.091-0.531-0.263-0.306-0.4-0.616-0.778-0.917-1.143-0.234-0.283-0.194-0.703 0.09-0.938 0.284-0.235 0.705-0.194 0.938 0.088 0.312 0.378 0.633 0.769 0.949 1.184 0.223 0.292 0.167 0.711-0.126 0.935C80.863 54.63 80.721 54.674 80.58 54.674zM77.864 51.125c-0.23 0-0.455-0.119-0.578-0.334-0.302-0.522-0.512-1.023-0.644-1.533-0.093-0.357 0.121-0.721 0.478-0.813 0.355-0.095 0.721 0.122 0.812 0.479 0.102 0.393 0.269 0.786 0.509 1.203 0.184 0.319 0.074 0.728-0.245 0.911C78.091 51.097 77.977 51.125 77.864 51.125z" fill="#c9ad8b" data-fill-palette-color="accent"></path></g><g fill="#c9ad8b" data-fill-palette-color="accent"><path d="M77.463 46.792c-0.07 0-0.141-0.011-0.211-0.034-0.35-0.116-0.538-0.493-0.422-0.844 0.072-0.217 0.155-0.44 0.252-0.671 0.142-0.34 0.533-0.5 0.872-0.357 0.34 0.142 0.5 0.532 0.358 0.872-0.083 0.199-0.155 0.391-0.217 0.577C78.003 46.616 77.742 46.792 77.463 46.792z" fill="#c9ad8b" data-fill-palette-color="accent"></path></g></g><g fill="#c9ad8b" data-fill-palette-color="accent"><g fill="#c9ad8b" data-fill-palette-color="accent"><path d="M81.4 41.597c-0.194 0-0.386-0.084-0.518-0.246-0.282-0.347-0.562-0.671-0.846-0.983-0.248-0.272-0.228-0.694 0.045-0.942 0.272-0.246 0.693-0.227 0.942 0.046 0.299 0.33 0.595 0.673 0.893 1.039 0.232 0.285 0.189 0.705-0.097 0.938C81.696 41.548 81.548 41.597 81.4 41.597zM78.645 38.701c-0.162 0-0.324-0.06-0.453-0.179-0.31-0.287-0.634-0.581-0.978-0.888-0.274-0.247-0.297-0.668-0.052-0.942 0.246-0.275 0.669-0.297 0.941-0.053 0.351 0.313 0.679 0.613 0.995 0.905 0.27 0.25 0.286 0.673 0.036 0.942C79.003 38.629 78.824 38.701 78.645 38.701z" fill="#c9ad8b" data-fill-palette-color="accent"></path></g><g fill="#c9ad8b" data-fill-palette-color="accent"><path d="M77.869 41.75c-0.069 0-0.14-0.011-0.209-0.034-0.35-0.115-0.54-0.492-0.424-0.842 0.123-0.374 0.382-0.826 0.768-1.341 0.222-0.296 0.639-0.355 0.935-0.135 0.295 0.221 0.354 0.639 0.134 0.934-0.287 0.384-0.495 0.733-0.57 0.96C78.409 41.571 78.148 41.75 77.869 41.75zM80.394 38.686c-0.199 0-0.396-0.089-0.527-0.259-0.227-0.29-0.173-0.709 0.118-0.936 0.736-0.571 1.288-0.776 1.756-0.657 0.356 0.089 0.574 0.451 0.484 0.81-0.084 0.338-0.418 0.551-0.754 0.495-0.045 0.014-0.252 0.083-0.67 0.407C80.68 38.64 80.536 38.686 80.394 38.686z" fill="#c9ad8b" data-fill-palette-color="accent"></path></g></g><path d="M92.701 85.87c-0.124 0-0.248-0.017-0.37-0.052L56.389 75.451l-48.87 8.178c-0.386 0.065-0.782-0.044-1.082-0.298s-0.472-0.626-0.472-1.019V19.186c0-0.652 0.471-1.208 1.114-1.316l49.168-8.227c0.196-0.033 0.397-0.021 0.59 0.034L93.07 20.128c0.571 0.165 0.965 0.688 0.965 1.281v63.126c0 0.419-0.197 0.814-0.532 1.066C93.269 85.778 92.986 85.87 92.701 85.87zM56.467 72.751c0.126 0 0.249 0.019 0.37 0.053l34.53 9.96v-60.35l-34.979-10.09L8.633 20.315v60.422l47.614-7.967C56.32 72.758 56.394 72.751 56.467 72.751z" fill="#c9ad8b" data-fill-palette-color="accent"></path></svg></g></svg></g></svg></g></svg></g></svg></g><defs></defs></svg><rect width="395.52" height="117.95656103627206" fill="none" stroke="none" visibility="hidden"></rect></g></svg></g></svg>